<svg xmlns="http://www.w3.org/2000/svg" viewBox="0 0 24 24">
    <path
            fill="currentColor"
            d="
      M9.586 4
      L3 10.586
      C2.219 11.367 2.219 12.633 3 13.414
      L9.586 20
      C10.213 20.627 11.154 20.805 11.94 20.434
      C12.725 20.062 13 19.197 13 18.586
      V16
      H18
      C18.552 16 19 15.552 19 15
      V9
      C19 8.448 18.552 8 18 8
      H13
      V5.414
      C13 4.803 12.725 3.938 11.94 3.566
      C11.154 3.195 10.213 3.373 9.586 4
      Z

      M21 8
      C21.552 8 22 8.448 22 9
      V15
      C22 15.552 21.552 16 21 16
      C20.448 16 20 15.552 20 15
      V9
      C20 8.448 20.448 8 21 8
      Z
    "
    />
</svg>
