<svg xmlns="http://www.w3.org/2000/svg" viewBox="0 0 16 16">
    <path d="M5 3.4C5.884 3.4 6.6 4.116 6.6 5C6.6 5.884 5.884 6.6 5 6.6C4.116 6.6 3.4 5.884 3.4 5C3.4 4.116 4.116 3.4 5 3.4ZM11 3.4C11.884 3.4 12.6 4.116 12.6 5C12.6 5.884 11.884 6.6 11 6.6C10.116 6.6 9.4 5.884 9.4 5C9.4 4.116 10.116 3.4 11 3.4ZM5 7.4C5.884 7.4 6.6 8.116 6.6 9C6.6 9.884 5.884 10.6 5 10.6C4.116 10.6 3.4 9.884 3.4 9C3.4 8.116 4.116 7.4 5 7.4ZM11 7.4C11.884 7.4 12.6 8.116 12.6 9C12.6 9.884 11.884 10.6 11 10.6C10.116 10.6 9.4 9.884 9.4 9C9.4 8.116 10.116 7.4 11 7.4ZM5 11.4C5.884 11.4 6.6 12.116 6.6 13C6.6 13.884 5.884 14.6 5 14.6C4.116 14.6 3.4 13.884 3.4 13C3.4 12.116 4.116 11.4 5 11.4ZM11 11.4C11.884 11.4 12.6 12.116 12.6 13C12.6 13.884 11.884 14.6 11 14.6C10.116 14.6 9.4 13.884 9.4 13C9.4 12.116 10.116 11.4 11 11.4Z"/>
</svg>
