<svg xmlns="http://www.w3.org/2000/svg"
     width="200"
     height="200"
     viewBox="0 0 24 24">
    <path fill="currentColor" d="
    M7 2
    H17
    C18.66 2 20 3.34 20 5
    V19
    C20 20.66 18.66 22 17 22
    H7
    C5.34 22 4 20.66 4 19
    V5
    C4 3.34 5.34 2 7 2
    Z

    M6 5
    V19
    C6 19.55 6.45 20 7 20
    H17
    C17.55 20 18 19.55 18 19
    V5
    C18 4.45 17.55 4 17 4
    H15
    V4.6
    C15 5.1 14.55 5.4 14 5.4
    H10
    C9.45 5.4 9 5.1 9 4.6
    V4
    H7
    C6.45 4 6 4.45 6 5
    Z

    M9.5 18.5
    A0.5 0.5 0 0 0 10 19
    H14
    A0.5 0.5 0 0 0 14.5 18.5
    A0.5 0.5 0 0 0 14 18
    H10
    A0.5 0.5 0 0 0 9.5 18.5
    Z
  "/>
</svg>
