<svg xmlns="http://www.w3.org/2000/svg" viewBox="0 0 24 24">
    <path fill="currentColor" d="M12 3.25c2.18 0 4.16.83 5.66 2.19l.59-.59c.5-.5 1.35-.15 1.35.56v4.34c0 .44-.36.8-.8.8H14.46c-.71 0-1.06-.86-.56-1.36l1.13-1.13A6.73 6.73 0 0 0 12 7.25A4.75 4.75 0 0 0 7.25 12A4.75 4.75 0 0 0 12 16.75c1.8 0 3.41-1 4.23-2.56c.2-.38.59-.61 1.02-.61c.92 0 1.5.98 1.08 1.8A7.24 7.24 0 0 1 12 19.25A7.25 7.25 0 0 1 4.75 12A7.25 7.25 0 0 1 12 4.75c1.04 0 2.02.22 2.9.62A7.17 7.17 0 0 0 12 4.75c-.41 0-.75-.34-.75-.75s.34-.75.75-.75z"/>
</svg>