<?xml version="1.0" encoding="UTF-8"?>
<svg xmlns="http://www.w3.org/2000/svg" viewBox="0 0 16 16">
    <path d="
M9.6504 6.9082c.264 0 .48.216.48.48v5.25c0 .264-.216.48-.48.48s-.48-.216-.48-.48v-5.25c0-.264.216-.48.48-.48Zm-3.3359 0c.264 0 .48.216.48.48v5.25c0 .264-.216.48-.48.48s-.48-.216-.48-.48v-5.25c0-.264.216-.48.48-.48ZM3.2148 2.8594c-.4598 0-.8339.3742-.8339.834 0 .4599.3741.8339.8339.8339H12.748c.4599 0 .834-.374.834-.8339 0-.4598-.3741-.834-.834-.834H3.2148Zm0-.7149H12.748c.8543 0 1.5489.6946 1.5489 1.5489 0 .7325-.5058 1.3437-1.1875 1.5058v7.5547c-.1094 2.2461-1.8094 2.9-3.1094 2.9H5.6074c-1.5111 0-2.7402-1.2291-2.7402-2.7402V6.5566c0-.264.216-.48.48-.48s.48.216.48.48v6.1973c0 1.1168.9086 2.0254 2.0254 2.0254h4.1474C11.7 14.75 12.2 13.4 12.1 12.7539V5.2422H3.2148c-.8542 0-1.5488-.6946-1.5488-1.5488 0-.8543.6946-1.5489 1.5488-1.5489ZM6.1953.4766H9.8047c.264 0 .48.216.48.48s-.216.48-.48.48H6.1953c-.264 0-.48-.216-.48-.48s.216-.48.48-.48Z
"/>

</svg>
